<svg id="visual" viewBox="0 0 1024 600" width="1024" height="600" xmlns="http://www.w3.org/2000/svg" xmlns:xlink="http://www.w3.org/1999/xlink" version="1.1"><rect x="0" y="0" width="1024" height="600" fill="#000000"></rect><defs><linearGradient id="grad1_0" x1="41.4%" y1="0%" x2="100%" y2="100%"><stop offset="15.866666666666665%" stop-color="#000000" stop-opacity="1"></stop><stop offset="84.13333333333333%" stop-color="#000000" stop-opacity="1"></stop></linearGradient></defs><defs><linearGradient id="grad2_0" x1="0%" y1="0%" x2="58.6%" y2="100%"><stop offset="15.866666666666665%" stop-color="#000000" stop-opacity="1"></stop><stop offset="84.13333333333333%" stop-color="#000000" stop-opacity="1"></stop></linearGradient></defs><g transform="translate(1024, 0)"><path d="M0 296.7C-47.5 281.9 -95.1 267.1 -141 244.2C-186.9 221.3 -231.3 190.4 -257 148.4C-282.6 106.3 -289.7 53.2 -296.7 0L0 0Z" fill="#FFB703"></path></g><g transform="translate(0, 600)"><path d="M0 -296.7C50.7 -287.4 101.5 -278.2 147 -254.6C192.5 -231 232.9 -193.2 257 -148.4C281 -103.5 288.9 -51.8 296.7 0L0 0Z" fill="#FFB703"></path></g></svg>