<svg id="visual" viewBox="0 0 350 600" width="350" height="600" xmlns="http://www.w3.org/2000/svg" xmlns:xlink="http://www.w3.org/1999/xlink" version="1.1"><rect x="0" y="0" width="350" height="600" fill="#000000"></rect><defs><linearGradient id="grad1_0" x1="0%" y1="0%" x2="100%" y2="100%"><stop offset="30%" stop-color="#000000" stop-opacity="1"></stop><stop offset="70%" stop-color="#000000" stop-opacity="1"></stop></linearGradient></defs><defs><linearGradient id="grad2_0" x1="0%" y1="0%" x2="100%" y2="100%"><stop offset="30%" stop-color="#000000" stop-opacity="1"></stop><stop offset="70%" stop-color="#000000" stop-opacity="1"></stop></linearGradient></defs><g transform="translate(350, 0)"><path d="M0 173.7C-30.9 169.4 -61.8 165.2 -86.8 150.4C-111.9 135.6 -131.1 110.3 -144.6 83.5C-158.1 56.7 -165.9 28.3 -173.7 0L0 0Z" fill="#FFB703"></path></g><g transform="translate(0, 600)"><path d="M0 -173.7C25.1 -160.3 50.3 -147 77.5 -134.2C104.7 -121.4 134 -109.1 150.4 -86.8C166.8 -64.5 170.2 -32.3 173.7 0L0 0Z" fill="#FFB703"></path></g></svg>